<?xml version="1.0" encoding="UTF-8"?>
<svg id="Layer_1" data-name="Layer 1" xmlns="http://www.w3.org/2000/svg" viewBox="0 0 745.85 1107">
  <defs>
    <style>
      .cls-1 {
        fill: #fbb03b;
        stroke-width: 0px;
      }
    </style>
  </defs>
  <g transform="scale(0.97)">
    <polygon class="cls-1" points="233.85 6 196.85 40 178.85 35 176.85 44 185.85 67 166.85 72 161.85 65 154.85 65 144.85 74 138.85 66 117.85 59 110.85 84 112.85 99 103.85 109 92.85 102 62.29 109 52.85 117 52.85 172.59 64.85 165 89.85 165 90.85 177 110.08 177 111.85 204 281.85 202 282.85 119 291.85 80 233.85 6"/>
  </g>
  <g transform="scale(0.97)">
    <polygon class="cls-1" points="52.85 175.28 31.15 175.28 27.85 191 20.94 191 20.85 198 12.35 198 12.35 210.18 22.85 210 22.85 215 10.2 215 10.2 221.99 0 221.99 0 247.77 15.57 247.77 15.85 258 0 252.6 0 279.99 12.89 279.99 11.85 292 19.87 292 19.85 298 32.22 298 31.85 305 37.05 305 57.85 329 76.79 329 148.85 361 148.85 349.26 141.85 345 145.85 339 148.85 317.04 152.85 312 152.85 306.84 147.85 306 147.85 289 152.85 288.58 152.85 204 111.85 204 110.08 177 90.85 177 89.85 165 64.85 165 52.85 172.59 52.85 175.28"/>
  </g>
    <polygon class="cls-1" points="233.85 6 239.85 0 245.94 0 255.85 10 360.35 10 355.85 20 368.85 24 372.85 20 369.85 18 369.45 12 382.87 12 382.87 24 387.85 31 396.83 31 396.85 37 390.93 37 389.85 50 381.85 54 382.85 64 389.85 64 388.85 70 383.95 70 383.85 78 376.43 78 373.85 85 365.85 78 362.85 72 357.85 74 342.85 59 308.85 92 326.85 112 337.85 102 342.06 105 328.85 127 375.85 184 374.82 204 354.95 204 350.34 227.18 282.34 202.18 282.85 119 291.85 80 233.85 6"/>
    <polygon class="cls-1" points="379.85 90 365.85 78 363.73 78 363.73 85.95 342.06 105 328.85 127 375.85 184 374.82 204 379.85 227 442.72 227 442.85 231 477.25 231 476.85 223 480.85 222 485.85 214 480.09 204 583.2 204 583.2 150.28 598.85 150 598.85 123.32 624.85 123 624.85 99.2 572.85 98 572.33 105 555.3 105 555.3 78 535.9 78 535.85 93 495.85 92 495.85 97 455.85 96 455.49 105 443.67 105 443.85 99 435.85 99 435.85 89 427.85 89 427.85 96 411.85 94 412.85 86 406.85 85 406.85 80 414.85 80 414.85 71 408.19 71 407.85 67 399.68 67 398.85 70 394.85 70 394.85 78 388.85 78 388.85 90 379.85 90"/>
    <polygon class="cls-1" points="375.72 204 354.95 204 350.85 225 349.85 241.29 363.85 262 363.85 265 369.65 265 369.85 296 370.85 308 380.85 314 380.85 316.68 369.65 316.68 369.85 353 393.85 381 405.85 373 410.85 377 421.85 377 428.85 370 428.85 360.88 432.85 361 432.85 363.91 440.85 364 454.85 379 465.85 381 465.85 384 470.62 384 470.85 381 473.85 381 473.85 373.88 461.85 360 449.85 347 444.85 347 445.85 340 467.85 341 457.85 308 450.85 308 450.85 303 454.85 303 446.85 271 445.85 249 432.85 248 432.85 239 443.85 239 442.72 227 379.85 227 375.72 204"/>
    <polygon class="cls-1" points="281.85 202 280.85 263 291.85 284.22 287.35 299.34 287.35 313.96 291.85 323.89 285.85 335 285.85 350 280.85 368 286.35 361.57 303.85 361 307.85 358 310.85 358 311.85 360 319.85 361 353.85 360 360.66 368 368.43 368 368.85 364 379.01 363.69 369.85 353 369.65 316.68 380.85 316.68 380.85 314 370.85 308 369.65 265 363.85 265 363.85 262 349.85 241.29 350.83 227 281.85 202"/>
    <polygon class="cls-1" points="152.85 204 281.85 202 280.85 263 291.85 284.22 288.94 294 287.35 313.96 291.85 323.89 285.85 335 285.85 350 280.85 368 274.56 368 271.78 361 240.64 361 238.41 368 233.85 361 228.96 361 222.35 364.21 199.85 365 191.71 361 185.04 361 180.03 368 163.35 368 155.57 361 148.85 361 148.85 349.26 141.85 345 145.85 339 148.85 317.04 152.85 312 147.85 303.61 147.85 289 152.85 285 152.85 204"/>
    <polygon class="cls-1" points="98.85 458 148.85 361 155.57 361 163.35 368 180.03 368 185.04 361 191.71 361 199.85 365 222.35 364.21 228.96 361 233.85 361 238.41 368 240.64 361 268.01 361 271.23 368 280.85 368 286.35 361.57 303.85 361 307.85 358 315.35 361 353.85 360 360.66 368 368.43 368 368.85 364 379.01 363.69 393.85 381 400.47 376.59 400.47 393.99 386.85 398 385.85 427 380.85 424.52 380.85 413.27 374.85 414 374.85 425 368.85 429 360.66 423.72 354.85 425 354.85 432 349.85 433.36 349.85 444.6 354.85 445 354.77 458 380.85 496.01 380.85 489.59 411.85 492 411.85 478.34 417.85 478 422.85 487 422.85 534.57 403.85 542 375.66 542 366.85 532 315.35 542 280.85 508.06 265.85 518 251.85 498 237.85 519 233.85 517.7 229.85 527 216.85 542 172.35 517.7 163.85 524 144.85 519 141.85 483.16 98.85 458"/>
    <polygon class="cls-1" points="325.85 560 267.85 600 299.85 642 299.85 657 308.85 661 339.85 732 353.85 738 353.85 730.58 349.85 724.96 344.85 710 417.85 710 417.85 716.92 433.85 716 433.85 709.69 429.85 710 429.85 675 417.85 675 417.85 662 427.85 655 427.85 630 405.85 633 391.85 620 396.85 616 388.85 607 380.85 613.3 376.85 603 384.85 592 389.85 583 380.85 579.56 374.85 591 366.85 582 360.35 588.39 350.85 581.97 360.35 576.34 355.85 568 375.85 556 380.85 560 398.95 542 375.66 542 366.85 532 315.35 542 325.85 560"/>
    <polygon class="cls-1" points="473.85 354.63 466.32 365.17 473.85 373.88 473.85 381 473.85 387.57 466.32 387.57 465.85 381 454.85 379 440.85 364 432.85 363.91 428.85 360.88 428.85 370 421.85 377 410.85 377 405.85 373 400.47 376.59 400.47 393.99 400.47 400.42 400.47 419.7 392.85 425 392.85 430.95 408.59 430.95 411.85 426.13 416.62 430.95 433.35 422.11 443.85 421 443.85 425 470.85 425 470.85 436 486.51 436 486.51 445.4 534.71 445.4 534.85 408 518.85 408 520.25 354.63 473.85 354.63"/>
    <polygon class="cls-1" points="710.85 417 711.85 396 701.85 396 691.85 410 674.85 416 665.85 440 644.68 452.64 644.68 470.31 639.85 490 634.85 506 646.85 565 667.26 565 691.85 570 690.55 483 729.11 483 738.85 462 738.85 428.54 745.85 420 710.85 417"/>
    <polygon class="cls-1" points="606.43 459.69 624.85 470.31 644.68 452.64 644.68 470.31 634.85 506 640.14 532 620.87 532 606.43 516.9 590.14 542 571.66 532 571.66 513.69 600.85 492 606.43 459.69"/>
    <polygon class="cls-1" points="571.66 542 571.66 532 590.14 542 606.43 516.9 620.87 532 640.14 532 646.85 565 620.87 565 624.85 610.08 596.85 610 596.57 635 561.22 635 561.22 564.29 571.66 542"/>
    <polygon class="cls-1" points="534.85 430.95 534.85 457.45 556.4 457.45 556.4 524.93 571.66 524.93 571.66 513.69 600.85 492 606.43 459.69 573.63 445.4 559.85 431 534.85 430.95"/>
    <polygon class="cls-1" points="499.37 445.4 499.37 457.45 506.85 457 499.37 470.31 499.37 483 506.85 483 499.37 497.32 506.85 501.64 506.85 524.93 556.4 524.93 556.4 457.45 534.85 457.45 534.71 445.4 499.37 445.4"/>
    <polygon class="cls-1" points="433.85 528.15 422.85 534.57 422.85 487 428.35 477.94 422.85 467.09 411.85 467.09 411.85 462.27 402.85 462 402.85 452.64 422.85 452.64 433.85 450 433.85 442.19 422.85 445.4 422.85 434.96 428.67 430.95 437.85 436 442.85 440 456.85 440 456.85 434.96 470.85 436 486.51 436 486.51 445.4 499.37 445.4 499.37 457.45 506.85 457 499.37 470.31 499.37 483 506.85 483 499.37 497.32 506.85 501.64 506.85 524.93 506.85 532 437.51 534.57 433.85 528.15"/>
    <polygon class="cls-1" points="429.85 539 433.85 528.15 437.51 534.57 506.85 532 506.85 524.93 571.66 524.93 571.66 542 561.22 560 561.22 584.38 515.85 584.38 515.85 602.05 488.85 602 489.85 585 476.85 575.95 473.85 582.77 458.85 583 447.85 594 447.95 575.95 438.85 581 433.85 570 433.85 560 426.26 560 425.85 555 411.85 553.05 429.85 539"/>
    <polygon class="cls-1" points="506.85 642.22 495.35 642.22 495.35 650.25 485.71 650.25 485.71 635 480.89 635 480.85 622 454.85 622 454.85 610.08 473.85 610.08 473.85 614.9 480.85 614.1 480.85 597.23 489.13 597.23 488.85 602 515.85 602.05 515.85 584.38 561.22 584.38 561.22 635 596.57 635 596.85 661 531.5 661 531.85 678 525.85 678 525.85 691.22 519.85 691 519.85 701 510.61 701 510.85 686 506.85 685.59 506.85 642.22"/>
    <polygon class="cls-1" points="543.85 811 543.85 725.93 561.22 720.55 582.85 693 604.03 693 608.17 669.74 630.74 669.74 630.85 685 639.85 697 639.85 716.09 608.17 716.09 608.17 725.93 578.15 725.93 561.22 738 561.22 811 543.85 811"/>
    <polygon class="cls-1" points="532.85 945 532.85 859.59 554.09 859.59 553.85 844 543.85 844 543.85 837.31 561.22 830.18 561.22 811 543.85 811 543.85 824.83 518.85 826 518.85 971.01 525.85 982.59 513.85 1003 518.85 1008 530.02 1008 529.85 1015 517.54 1015 517.85 1035 506.85 1035 506.85 1061.92 498.85 1065 491.76 1065 484.85 1078 539.85 1099 538.85 1107 549.63 1107 554.85 1098 561.22 1098.46 579.94 1107 630.85 1090 608.17 1015.57 620.87 1012.9 613.85 1002 646.85 971.01 639.85 959 646.85 924.66 639.85 885.44 634.85 895.24 639.85 925.55 628.85 954 620.87 938.92 596.85 939.81 596.85 929.11 583.85 928 578.85 942 532.85 945"/>
    <polygon class="cls-1" points="518.85 309 512.85 321 518.85 331.53 520.25 354.63 518.85 408 534.85 408 534.85 430.95 559.85 431 573.63 445.4 624.85 470.31 644.68 452.64 665.85 440 674.85 416 691.85 410 701.85 396 711.85 396 730.48 368 722.05 368 712.85 374 700.6 358 700.85 347 707.85 344 702.85 336 702.85 329 684.85 328 683.85 320 664.85 331 644.68 327.7 634.85 336.89 639.85 354.63 627.79 354.63 628.56 368 604.03 372.15 608.17 384 596.85 384 570.64 325.4 565.85 325 565.85 318 548.85 319 539.66 309 534.85 314.67 518.85 309"/>
  <g transform="scale(0.97)">
    <polygon class="cls-1" points="546.72 661 546.72 725.04 561.22 720.55 582.85 693 599.5 693 599.5 676.93 596.85 673.86 596.85 661 546.72 661"/>
  </g>
</svg>